<?xml version="1.0" encoding="UTF-8"?>
<svg width="256px" height="256px" viewBox="0 0 256 256" version="1.1" xmlns="http://www.w3.org/2000/svg" xmlns:xlink="http://www.w3.org/1999/xlink">
    <!-- Generator: Sketch 52.6 (67491) - http://www.bohemiancoding.com/sketch -->
    <title>Ecwid App Logo</title>
    <desc>Created with Sketch.</desc>
    <defs>
        <linearGradient x1="22.081321%" y1="1.91261985%" x2="70.4920884%" y2="95.7777578%" id="linearGradient-1">
            <stop stop-color="#F6703D" offset="0%"></stop>
            <stop stop-color="#FF944A" offset="100%"></stop>
        </linearGradient>
        <path d="M66.3634417,95.9113153 C67.0792101,86.2206706 75.4862993,77.4852522 85.1654237,76.6161539 C85.1654237,76.6161539 93.3599357,74.9433763 126.823443,74.9433763 C160.286949,74.9433763 172.330345,76.7623523 172.330345,76.7623523 C182.007138,77.6473596 190.572768,86.2091502 191.25041,95.9028122 C191.25041,95.9028122 195.472607,118.010331 189.532923,172.021559 C188.92838,177.519357 186.674786,179.705063 180.4401,177.016714 C171.058172,172.971574 166.761642,168.059393 160.241828,168.059393 C158.286666,168.059393 159.796513,168.707685 126.556144,168.707685 C93.3157745,168.707685 85.1881901,167.279028 85.1881901,167.279028 C75.5072828,166.448468 66.9227257,157.930976 66.113972,148.248012 C66.113972,148.248012 64.7268708,136.834668 64.7268708,120.462787 C64.7268708,104.090907 66.3634417,95.9113153 66.3634417,95.9113153 Z" id="path-2"></path>
        <filter x="-12.5%" y="-13.6%" width="125.0%" height="154.3%" filterUnits="objectBoundingBox" id="filter-3">
            <feOffset dx="0" dy="26" in="SourceAlpha" result="shadowOffsetOuter1"></feOffset>
            <feGaussianBlur stdDeviation="1" in="shadowOffsetOuter1" result="shadowBlurOuter1"></feGaussianBlur>
            <feColorMatrix values="0 0 0 0 0   0 0 0 0 0   0 0 0 0 0  0 0 0 0.07 0" type="matrix" in="shadowBlurOuter1"></feColorMatrix>
        </filter>
        <linearGradient x1="50%" y1="93.6335739%" x2="50%" y2="8.32667268e-15%" id="linearGradient-4">
            <stop stop-color="#FFFFFF" stop-opacity="0.901296422" offset="0%"></stop>
            <stop stop-color="#FFFFFF" stop-opacity="0.959210824" offset="100%"></stop>
        </linearGradient>
        <path d="M55.857852,92.4629936 C56.6942175,81.1396079 66.5177862,70.9323912 77.8277106,69.9168618 C77.8277106,69.9168618 87.4028856,67.962244 126.504535,67.962244 C165.606185,67.962244 179.678727,70.0876925 179.678727,70.0876925 C190.985927,71.1218114 200.99475,81.1261466 201.786565,92.4530579 C201.786565,92.4530579 206.720144,130.371552 199.779704,193.482933 C199.073305,199.907034 196.440011,202.461002 189.154865,199.319704 C178.192212,194.593013 173.171775,188.853196 165.553461,188.853196 C163.268881,188.853196 165.033117,189.610716 126.1922,189.610716 C87.3512838,189.610716 77.8543127,187.941351 77.8543127,187.941351 C66.5423051,186.970853 56.5113677,177.01828 55.56635,165.703868 C55.56635,165.703868 53.9455413,152.367532 53.9455413,133.237214 C53.9455413,114.106896 55.857852,92.4629936 55.857852,92.4629936 Z M128.762193,151.726356 L149.243453,162.568339 C152.03107,164.043957 153.851556,162.721381 153.309577,159.614217 L149.327265,136.784916 L165.967718,120.656476 C168.232427,118.461317 167.537245,116.321285 164.414536,115.87658 L141.472096,112.609322 L131.275136,91.7993819 C129.887336,88.9670531 127.63721,88.9670531 126.249251,91.7993819 L116.05245,112.609322 L93.1098502,115.87658 C89.9873015,116.321285 89.2919595,118.461317 91.5568289,120.656476 L108.197281,136.784916 L104.21497,159.614217 C103.672831,162.721381 105.493316,164.043957 108.280934,162.568339 L128.762193,151.726356 Z" id="path-5"></path>
        <filter x="-1.3%" y="-1.5%" width="102.7%" height="103.0%" filterUnits="objectBoundingBox" id="filter-6">
            <feGaussianBlur stdDeviation="1" in="SourceAlpha" result="shadowBlurInner1"></feGaussianBlur>
            <feOffset dx="0" dy="2" in="shadowBlurInner1" result="shadowOffsetInner1"></feOffset>
            <feComposite in="shadowOffsetInner1" in2="SourceAlpha" operator="arithmetic" k2="-1" k3="1" result="shadowInnerInner1"></feComposite>
            <feColorMatrix values="0 0 0 0 1   0 0 0 0 1   0 0 0 0 1  0 0 0 0.702983469 0" type="matrix" in="shadowInnerInner1"></feColorMatrix>
        </filter>
        <linearGradient x1="50%" y1="93.6335739%" x2="50%" y2="8.32667268e-15%" id="linearGradient-7">
            <stop stop-color="#FFFFFF" stop-opacity="0.902513587" offset="0%"></stop>
            <stop stop-color="#FFFFFF" offset="100%"></stop>
        </linearGradient>
        <path d="M1.93346529,25.2306704 C2.76983079,13.9072847 12.5933995,3.70006797 23.9033238,2.68453852 C23.9033238,2.68453852 33.4784989,0.72992078 72.5801485,0.72992078 C111.681798,0.72992078 125.754341,2.85536926 125.754341,2.85536926 C137.061541,3.88948817 147.070363,13.8938234 147.862178,25.2207346 C147.862178,25.2207346 152.795757,63.1392291 145.855317,126.25061 C145.148918,132.674711 142.515624,135.228679 135.230479,132.08738 C124.267825,127.360689 119.247388,121.620873 111.629074,121.620873 C109.344494,121.620873 111.10873,122.378393 72.2678135,122.378393 C33.4268971,122.378393 23.929926,120.709028 23.929926,120.709028 C12.6179184,119.73853 2.586981,109.785956 1.64196331,98.4715449 C1.64196331,98.4715449 0.0211545988,85.135209 0.0211545988,66.0048907 C0.0211545988,46.8745723 1.93346529,25.2306704 1.93346529,25.2306704 Z M74.8378065,84.4940329 L95.3190658,95.3360156 C98.1066838,96.8116342 99.9271689,95.4890582 99.38519,92.3818938 L95.4028787,69.5525932 L112.043331,53.4241523 C114.30804,51.2289934 113.612858,49.0889618 110.490149,48.644257 L87.5477095,45.3769989 L77.3507491,24.5670587 C75.9629496,21.7347299 73.7128236,21.7347299 72.3248639,24.5670587 L62.1280637,45.3769989 L39.1854635,48.644257 C36.0629148,49.0889618 35.3675728,51.2289934 37.6324422,53.4241523 L54.2728945,69.5525932 L50.2905832,92.3818938 C49.748444,95.4890582 51.5689292,96.8116342 54.3565471,95.3360156 L74.8378065,84.4940329 Z" id="path-8"></path>
    </defs>
    <g id="Ecwid-App-Logo" stroke="none" stroke-width="1" fill="none" fill-rule="evenodd">
        <g id="Orange-+-Wide-Shadow">
            <rect id="Rectangle" fill="#FC8735" x="0" y="0" width="256" height="256"></rect>
            <rect id="Rectangle" fill="#F27B44" opacity="0.299988678" x="0" y="0" width="256" height="256"></rect>
            <g id="drop">
                <use fill="black" fill-opacity="1" filter="url(#filter-3)" xlink:href="#path-2"></use>
                <use fill="url(#linearGradient-1)" fill-rule="evenodd" xlink:href="#path-2"></use>
            </g>
            <path d="M129.050793,151.651221 L149.532052,162.493204 C152.31967,163.968822 154.140155,162.646246 153.598176,159.539082 L149.615865,136.709781 L166.256317,120.58134 C168.521026,118.386181 167.825845,116.24615 164.703136,115.801445 L141.760696,112.534187 L131.563735,91.7242466 C130.175936,88.8919178 127.92581,88.8919178 126.53785,91.7242466 L116.34105,112.534187 L93.3984498,115.801445 C90.275901,116.24615 89.580559,118.386181 91.8454285,120.58134 L108.485881,136.709781 L104.50357,159.539082 C103.96143,162.646246 105.781915,163.968822 108.569533,162.493204 L129.050793,151.651221 Z" id="drop"></path>
            <g id="main">
                <use fill="url(#linearGradient-4)" fill-rule="evenodd" xlink:href="#path-5"></use>
                <use fill="black" fill-opacity="1" filter="url(#filter-6)" xlink:href="#path-5"></use>
            </g>
            <g id="Rectangle-23" transform="translate(53.924387, 67.232323)">
                <mask id="mask-9" fill="white">
                    <use xlink:href="#path-8"></use>
                </mask>
                <use id="Mask" fill="url(#linearGradient-7)" xlink:href="#path-8"></use>
            </g>
        </g>
    </g>
</svg>